{"title":"Nobel Chor (2012)  -  Bengali  -  Original DVD RIP","uid":7212657,"size":738058484,"categoryP":"video","categoryS":"movies","magnet":"?xt=urn:btih:f768e88457380dc8093ef6b87e7c9d106e80c4d4&amp;dn=Nobel+Chor+%282012%29++-++Bengali++-++Original+DVD+RIP&amp;tr=udp%3A%2F%2Ftracker.openbittorrent.com%3A80&amp;tr=udp%3A%2F%2Fopen.demonii.com%3A1337&amp;tr=udp%3A%2F%2Ftracker.coppersurfer.tk%3A6969&amp;tr=udp%3A%2F%2Fexodus.desync.com%3A6969","seeders":0,"leechers":1,"uploader":"anish2581","files":3,"time":1335291441,"description":"\n\nScreens :\n\n\n &lt;a href=&quot;\nhttp://i.imgur.com/kth8Y.jpg&quot; rel=&quot;nofollow&quot; target=&quot;_NEW&quot;&gt;\nhttp://i.imgur.com/kth8Y.jpg&lt;/a&gt;\n &lt;a href=&quot;\nhttp://i.imgur.com/sJfAg.jpg&quot; rel=&quot;nofollow&quot; target=&quot;_NEW&quot;&gt;\nhttp://i.imgur.com/sJfAg.jpg&lt;/a&gt;\n\n\n\nExtra Screen Shots :\n\n\n &lt;a href=&quot;\nhttp://i.imgur.com/zjOjj.jpg&quot; rel=&quot;nofollow&quot; target=&quot;_NEW&quot;&gt;\nhttp://i.imgur.com/zjOjj.jpg&lt;/a&gt;\n &lt;a href=&quot;\nhttp://i.imgur.com/maZGZ.jpg&quot; rel=&quot;nofollow&quot; target=&quot;_NEW&quot;&gt;\nhttp://i.imgur.com/maZGZ.jpg&lt;/a&gt;\n &lt;a href=&quot;\nhttp://i.imgur.com/vab60.jpg&quot; rel=&quot;nofollow&quot; target=&quot;_NEW&quot;&gt;\nhttp://i.imgur.com/vab60.jpg&lt;/a&gt;\n &lt;a href=&quot;\nhttp://i.imgur.com/DOBsc.jpg&quot; rel=&quot;nofollow&quot; target=&quot;_NEW&quot;&gt;\nhttp://i.imgur.com/DOBsc.jpg&lt;/a&gt;\n\n\n\nMedia Info : ---\n\n\nFormat                           : AVI\nFormat/Info                      : Audio Video Interleave\nFile size                        : 703 MiB\nDuration                         : 1h 37mn\nOverall bit rate                 : 1 009 Kbps\n\nVideo\nID                               : 0\nFormat                           : MPEG-4 Visual\nFormat profile                   : Advanced Simple@L5\nFormat settings, BVOP            : 1\nFormat settings, QPel            : No\nFormat settings, GMC             : No warppoints\nFormat settings, Matrix          : Custom\nCodec ID                         : XVID\nCodec ID/Hint                    : XviD\nDuration                         : 1h 37mn\nBit rate                         : 880 Kbps\nWidth                            : 608 pixels\nHeight                           : 352 pixels\nDisplay aspect ratio             : 16:9\nFrame rate                       : 29.970 fps\nColor space                      : YUV\nChroma subsampling               : 4:2:0\nBit depth                        : 8 bits\nScan type                        : Progressive\nCompression mode                 : Lossy\nBits/(Pixel*Frame)               : 0.137\nStream size                      : 613 MiB (87%)\n\nAudio\nID                               : 1\nFormat                           : MPEG Audio\nFormat version                   : Version 1\nFormat profile                   : Layer 3\nMode                             : Joint stereo\nMode extension                   : MS Stereo\nCodec ID                         : 55\nCodec ID/Hint                    : MP3\nDuration                         : 1h 37mn\nBit rate mode                    : Variable\nBit rate                         : 115 Kbps\nNominal bit rate                 : 128 Kbps\nChannel(s)                       : 2 channels\nSampling rate                    : 48.0 KHz\nCompression mode                 : Lossy\nStream size                      : 80.2 MiB (11%)\nAlignment                        : Aligned on interleaves\n\n\n\n\n\n\n\n","torrent":{"xt":"urn:btih:f768e88457380dc8093ef6b87e7c9d106e80c4d4","amp;dn":"Nobel+Chor+%282012%29++-++Bengali++-++Original+DVD+RIP","amp;tr":["udp%3A%2F%2Ftracker.openbittorrent.com%3A80","udp%3A%2F%2Fopen.demonii.com%3A1337","udp%3A%2F%2Ftracker.coppersurfer.tk%3A6969","udp%3A%2F%2Fexodus.desync.com%3A6969"],"infoHash":"f768e88457380dc8093ef6b87e7c9d106e80c4d4","infoHashBuffer":{"type":"Buffer","data":[247,104,232,132,87,56,13,200,9,62,246,184,126,124,157,16,110,128,196,212]},"announce":[],"urlList":[]}}